<svg xmlns="http://www.w3.org/2000/svg" width="23.782" height="24.56" viewBox="0 0 23.782 24.56">
  <defs>
    <style>
      .cls-1 {
        fill: #f6d706;
        fill-rule: evenodd;
      }
    </style>
  </defs>
  <path id="シェイプ_3_のコピー_5" data-name="シェイプ 3 のコピー 5" class="cls-1" d="M799.248,4438.94c-2.546,6.24-1.717,7.19-1.359,7.6a1.9,1.9,0,0,0,.993.57h0c1.53,0.41,5.164-.09,6.69-0.33,1.2,0.97,4.1,3.22,5.626,3.63a1.866,1.866,0,0,0,1.147,0c0.518-.17,1.711-0.58,2.625-7.26,5.794-3.7,5.678-4.9,5.622-5.48-0.051-.52-0.166-1.72-6.145-4.6-1.674-6.63-2.771-6.93-3.307-7.07s-1.632-.44-6.4,4.47c-6.619-.5-7.318.48-7.622,0.91C796.778,4431.86,796.078,4432.84,799.248,4438.94Z" transform="translate(-796.812 -4425.94)"/>
</svg>
